Coordinates
version=1
nRows=11
nColumns=40
inDegrees=yes

Units are S.I. units (second, meters, Newtons, ...)
Angles are in degrees.

endheader
time	pelvis_tilt	pelvis_list	pelvis_rotation	pelvis_tx	pelvis_ty	pelvis_tz	hip_flexion_r	hip_adduction_r	hip_rotation_r	knee_angle_r	knee_angle_r_beta	ankle_angle_r	subtalar_angle_r	mtp_angle_r	hip_flexion_l	hip_adduction_l	hip_rotation_l	knee_angle_l	knee_angle_l_beta	ankle_angle_l	subtalar_angle_l	mtp_angle_l	lumbar_extension	lumbar_bending	lumbar_rotation	arm_flex_r	arm_add_r	arm_rot_r	elbow_flex_r	pro_sup_r	wrist_flex_r	wrist_dev_r	arm_flex_l	arm_add_l	arm_rot_l	elbow_flex_l	pro_sup_l	wrist_flex_l	wrist_dev_l
      7.22000000	     -5.54721479	     -5.37300043	     -1.91533330	      0.92955117	      0.91984913	      0.56277231	     14.56868519	      7.25519513	    -10.53054182	     23.23745109	     23.23745109	     15.62284775	     -6.47813372	      0.71619653	     16.41413653	    -14.30426573	     -0.18270471	     57.89343766	     57.89343766	      3.74541659	    -18.37918701	      3.26371556	     -9.51047933	      6.35016795	     -0.65409576	      0.58899807	    -14.11666788	    -13.91906465	     23.46078794	     46.01775480	      0.00000000	      0.00000000	     19.11106415	     -9.55252361	     -5.04044863	     37.33001190	     45.22921324	      0.00000000	      0.00000000
      7.24050000	     -5.34635246	     -5.46901680	     -1.45698364	      0.92788823	      0.91750264	      0.56442171	     14.79044255	      7.43854348	    -10.33401187	     24.62673409	     24.62673409	     16.34309628	     -7.86268889	      0.56646951	     18.25526996	    -14.50855139	      0.52201148	     60.44771786	     60.44771786	      4.36404799	    -18.89960566	      4.93885656	     -9.68882352	      6.12678253	     -0.86310409	      3.32803037	    -13.72135269	    -13.91850705	     24.93056218	     45.99060388	      0.00000000	      0.00000000	     16.62464449	     -9.11082170	     -4.63784450	     35.14366974	     45.16867827	      0.00000000	      0.00000000
      7.26100000	     -5.00114945	     -5.56973247	     -0.96611016	      0.92621018	      0.91533156	      0.56588244	     14.77581606	      7.62921889	    -10.17382451	     25.90155839	     25.90155839	     17.25818408	     -9.00902644	      0.94362270	     20.15120689	    -14.45513914	      1.52966264	     63.13544025	     63.13544025	      7.33751122	    -19.04933737	     12.89323838	    -10.05228929	      5.90298353	     -0.49036619	      5.76351111	    -13.63764260	    -13.32379853	     26.46965016	     45.93946329	      0.00000000	      0.00000000	     15.02199538	     -8.43919607	     -3.45486501	     31.38549800	     45.09482981	      0.00000000	      0.00000000
      7.28150000	     -4.64454118	     -5.71604374	     -0.43458169	      0.92458673	      0.91316683	      0.56734873	     14.68464487	      7.90206077	    -10.02572816	     27.05127050	     27.05127050	     18.03082450	    -10.21125388	      1.16332377	     21.81891133	    -14.66742042	      2.19297471	     65.03640980	     65.03640980	      9.00136788	    -19.25336728	     16.53610381	    -10.42043097	      5.73360682	     -0.55425640	      8.44369603	    -13.42097497	    -12.62879193	     28.57155457	     45.84656411	      0.00000000	      0.00000000	     12.82818257	     -8.06569321	     -2.54155176	     28.57258944	     45.01402436	      0.00000000	      0.00000000
      7.30200000	     -4.40925951	     -5.83709934	      0.13603229	      0.92286564	      0.91100158	      0.56853759	     14.66742128	      8.12449507	     -9.99016265	     28.06947878	     28.06947878	     18.78868353	    -11.24337874	      1.42041959	     23.56491520	    -14.84864756	      2.77135264	     66.36716938	     66.36716938	     10.76703531	    -19.41322458	     19.85795774	    -10.63954975	      5.56818128	     -0.36341378	     10.91849358	    -13.41913951	    -11.52702827	     30.83586874	     45.72333763	      0.00000000	      0.00000000	     10.68134299	     -7.59558250	     -1.50664148	     26.15284535	     44.90979949	      0.00000000	      0.00000000
      7.32250000	     -4.14194523	     -5.98629784	      0.77173032	      0.92124433	      0.90921247	      0.56951630	     14.47247845	      8.39109294	     -9.99856629	     28.79897959	     28.79897959	     19.36068501	    -12.25471154	      1.42910340	     25.10543417	    -15.13120359	      3.16865393	     66.87559930	     66.87559930	     11.88806226	    -19.51579907	     20.69621764	    -10.87881810	      5.44337179	     -0.49870920	     13.77483844	    -13.17345110	    -11.19763416	     32.90114603	     45.64553823	      0.00000000	      0.00000000	      8.26164060	     -7.33375552	     -1.09030719	     24.50977974	     44.82664731	      0.00000000	      0.00000000
      7.34300000	     -3.89840496	     -6.06461238	      1.44584373	      0.91960685	      0.90799531	      0.56995794	     14.15082021	      8.57056224	    -10.04552920	     29.22416968	     29.22416968	     19.89491968	    -13.12157351	      1.87438516	     26.61001377	    -15.19640715	      3.55351280	     66.76126246	     66.76126246	     13.69454676	    -19.57634615	     23.23757718	    -11.11744999	      5.31498741	     -0.24111430	     16.06811588	    -13.46783201	     -9.74166943	     35.90651042	     45.47524859	      0.00000000	      0.00000000	      6.07392382	     -7.04806731	     -0.07974156	     23.20452308	     44.67041903	      0.00000000	      0.00000000
      7.36350000	     -3.78314285	     -6.06131663	      2.10216354	      0.91799811	      0.90732123	      0.56999529	     13.78491297	      8.58124257	    -10.29677337	     29.31984979	     29.31984979	     20.21800917	    -13.43545896	      1.81689913	     27.97283306	    -15.16495551	      3.70094785	     65.69341283	     65.69341283	     14.61100283	    -19.61691582	     23.01278009	    -11.15767951	      5.07818181	      0.83205007	     18.48285227	    -14.08170407	     -9.78221738	     37.08725671	     45.45030226	      0.00000000	      0.00000000	      4.26669890	     -6.63034571	      0.00820570	     22.50835737	     44.62465453	      0.00000000	      0.00000000
      7.38400000	     -3.70283380	     -6.04051237	      2.90816761	      0.91629643	      0.90716655	      0.56949180	     13.35886670	      8.60648598	    -10.48979229	     29.17204718	     29.17204718	     20.41342760	    -14.14983372	      2.01978879	     29.32136927	    -14.90532649	      3.98183599	     64.01206594	     64.01206594	     15.60606564	    -19.62511457	     23.34981862	    -11.18818322	      4.96804817	     -0.23918403	     21.72480223	    -13.38391358	     -9.45083140	     40.31539106	     45.33099177	      0.00000000	      0.00000000	      1.64304758	     -6.70584251	      0.35289495	     21.34071020	     44.52308311	      0.00000000	      0.00000000
      7.40450000	     -3.77030395	     -5.89343412	      3.68864240	      0.91452201	      0.90769851	      0.56844240	     12.90067511	      8.41216624	    -10.85305055	     28.68297365	     28.68297365	     20.45734433	    -14.35225773	      2.24825036	     30.53766594	    -14.32906108	      4.19814735	     61.54513904	     61.54513904	     16.42455637	    -19.61890853	     23.49025393	    -11.13836194	      4.72293767	     -0.33561594	     24.14122093	    -13.65293489	     -8.63350236	     43.96315065	     45.17575628	      0.00000000	      0.00000000	     -0.67329623	     -6.68391531	      0.78857560	     21.42093762	     44.39731820	      0.00000000	      0.00000000
      7.42500000	     -3.89833939	     -5.63047578	      4.47320319	      0.91269002	      0.90875090	      0.56693564	     12.38385778	      8.04373804	    -11.31898899	     28.00319645	     28.00319645	     20.46065850	    -14.33814375	      2.28204530	     31.56404843	    -13.48052211	      4.39820210	     58.41115296	     58.41115296	     16.48323494	    -19.58731821	     22.72742114	    -11.04740554	      4.38892023	      0.30738288	     25.57512809	    -14.93969724	     -6.68483830	     49.25849387	     44.93445799	      0.00000000	      0.00000000	     -2.97851577	     -6.90834844	      2.07787611	     22.95253875	     44.12694422	      0.00000000	      0.00000000
